<svg xmlns="http://www.w3.org/2000/svg" viewBox="0 0 20 20"><symbol id="8bec085b-5186-464b-8e56-40e87ae58e03" viewBox="0 0 20 20" fill="#000000"><g clip-path="url(#group_users)"><path d="M3.333 10.833c.917 0 1.667-.75 1.667-1.666C5 8.25 4.25 7.5 3.333 7.5c-.916 0-1.666.75-1.666 1.667 0 .916.75 1.666 1.666 1.666zm.942.917a5.819 5.819 0 0 0-.942-.083c-.825 0-1.608.175-2.316.483A1.676 1.676 0 0 0 0 13.692V15h3.75v-1.342c0-.691.192-1.341.525-1.908zm12.392-.917c.916 0 1.666-.75 1.666-1.666 0-.917-.75-1.667-1.666-1.667C15.75 7.5 15 8.25 15 9.167c0 .916.75 1.666 1.667 1.666zM20 13.692c0-.675-.4-1.275-1.017-1.542a5.792 5.792 0 0 0-2.316-.483c-.325 0-.634.033-.942.083a3.75 3.75 0 0 1 .525 1.908V15H20v-1.308zm-6.467-2.317a8.703 8.703 0 0 0-3.533-.75 8.842 8.842 0 0 0-3.533.75c-.9.4-1.467 1.3-1.467 2.283V15h10v-1.342a2.49 2.49 0 0 0-1.467-2.283zm-6.808 1.958c.075-.191.108-.325.758-.575A6.876 6.876 0 0 1 10 12.292c.858 0 1.708.15 2.517.466.641.25.675.384.758.575h-6.55zM10 6.667c.458 0 .833.375.833.833a.836.836 0 0 1-.833.833.836.836 0 0 1-.833-.833c0-.458.375-.833.833-.833zM10 5a2.497 2.497 0 0 0-2.5 2.5C7.5 8.883 8.617 10 10 10s2.5-1.117 2.5-2.5S11.383 5 10 5z" fill="#000000" data-darkreader-inline-fill="" style="--darkreader-inline-fill: #9f9587;"/></g><defs fill="#000000"><clipPath id="group_users" fill="#000000"><path fill="#fff" d="M0 0h20v20H0z" data-darkreader-inline-fill="" style="--darkreader-inline-fill: #f0ebe2;"/></clipPath></defs></symbol><use href="#8bec085b-5186-464b-8e56-40e87ae58e03" fill="#000000"/></svg>