<svg xmlns="http://www.w3.org/2000/svg" viewBox="0 0 182 200"><symbol id="92d7d06d-ec9c-407d-9502-21bfe59a9e40" viewBox="0 0 182 200"><path d="M180.8,133.4c-0.4-0.3-0.4-0.6-0.4-0.9v0c0,0,0-0.1,0-0.1c-0.1-2.3-0.4-4.6-0.9-6.8c-2.1-10.1-6-19.3-12.5-27.4c-2.9-3.6-6.2-6.7-9.9-9.3c-4.7-3.2-9.3-6.5-14.1-9.6c-11.6-7.6-23.5-14.6-35.6-21.4C97.6,52.3,87.7,46.9,77.7,42c-3.9-1.9-7.8-3.8-11.8-5.3c-1.5-0.6-3-1.1-4.5-1.5c-1.9-0.5-3.9-0.5-5.9,0.1c-1.1,0.3-2.1,0.9-2.9,1.6c-0.2,0.1-0.3,0.3-0.5,0.4l0,0l0,0c-0.1,0.1-0.2,0.1-0.3,0.2c0-0.1,0-0.2,0-0.3c0-0.2,0-0.3,0.1-0.4c4.4-11.2,10.9-20.8,20.5-28.2c4.9-3.8,10.3-6.5,16.1-8.3c1.7-0.5,3.4-0.4,5.1-0.1c2.3,0.5,4.4,1.3,6.5,2.2c5.3,2.2,10.5,4.7,15.6,7.4c15.8,8.2,31.2,17.1,46.1,27c3.6,2.4,7.1,4.8,10.4,7.5c1.5,1.2,3,2.5,4.3,3.9c1,1.1,1.7,2.3,2.1,3.7c0.9,3,1.3,6.1,1.7,9.2c1.2,11.6,1.6,23.2,1.7,34.8c0.1,8.3,0,16.5-0.4,24.7c-0.1,2.8-0.3,5.6-0.5,8.5v0v0c-0.1,1.2-0.2,2.5-0.2,3.7c0,0.1,0,0.2,0,0.3C180.8,133.2,180.8,133.3,180.8,133.4z"></path><path d="M109.6,192.7c-3.9,1.9-7.9,3.8-12,5.4c0.6-3.4,1.8-12.8-3.1-23.1c-5-10.8-13.5-15.9-16.4-17.6c0,0,30.6-16.4,42.1-23.2c10-5.9,20-12,29.6-18.7c2.6-1.8,5.1-3.6,7.5-5.5c1.4-1.1,2.8-2.3,4.1-3.6c1.7-1.7,2.8-3.8,3-6.2c0.1-0.6,0-1.1-0.1-1.7l0-0.2c0-0.3-0.1-0.6-0.2-0.9l0,0c0-0.2-0.1-0.4-0.1-0.7c0.1,0.1,0.2,0.2,0.3,0.3v0c0.1,0.1,0.2,0.2,0.3,0.3c5.9,7.3,10.2,15.3,12.7,24.4c1.2,4.5,1.9,9.1,1.9,13.8c0,4-0.5,8-1.3,11.9c-0.3,1.3-0.8,2.4-1.7,3.4c-0.9,1-1.9,2.1-2.9,3c-2.5,2.2-5.2,4.2-7.9,6.1c-7.8,5.4-15.8,10.4-23.9,15.3C131.2,181.4,120.5,187.3,109.6,192.7z"></path><path d="M44,195.8l16.6-20.1c13.3,8.4,11.5,21.3,11.1,23.9h0l0,0c0,0.1,0,0.1,0,0.1H45.9C43.8,199.8,42.7,197.4,44,195.8z"></path><path d="M47.4,139.4c0.1,2.1-2.6,3.2-3.9,1.5l-18-21.7c-0.9-1.1-2.6-1.1-3.4,0L4.4,141.2c-1.3,1.6-3.9,0.7-4-1.3c-0.2-13.3-0.6-44.5-0.4-54.7C0.2,79.5,0.5,73.7,0.9,68c0.3-3.9,0.6-7.8,1.3-11.7c0.3-1.5,0.6-3,1-4.4c0.3-1.3,1.3-3.1,2.2-4.1c1.6-1.7,3.4-3.3,5.3-4.7c4.7-3.6,9.6-6.9,14.6-10.1C40,23.6,55.1,14.9,70.8,7.1c1-0.5,2-1,3-1.4c0.3-0.1,0.6-0.3,0.9-0.4c0,0,0.1,0,0.2,0c0,0,0.1,0,0.2,0c-0.1,0.5-0.4,0.6-0.7,0.8c-0.1,0-0.1,0.1-0.2,0.1C65.6,12,58.9,19.5,54,28.6c-2.7,5-4.6,10.4-5.5,16c-0.3,2.1-0.5,4.2-0.7,6.4c-0.6,8.2-1.2,16.4-1.4,24.6c-0.4,13-0.5,26.1-0.2,39.1C46.3,117.8,47,131.2,47.4,139.4z"></path></symbol><use href="#92d7d06d-ec9c-407d-9502-21bfe59a9e40"></use></svg>