<svg xmlns="http://www.w3.org/2000/svg" viewBox="0 0 24 25"><symbol id="4a2d59e6-c4e9-4622-b29c-4d328b7e74c2" viewBox="0 0 24 25"><path d="M10.5728 2.20427L8.55702 1.63858C7.75997 1.42049 6.90902 1.52787 6.19101 1.93714C5.473 2.34641 4.94662 3.02411 4.72746 3.82145L4.72322 3.8363L4.18906 5.87562C5.77389 3.8849 8.05625 2.5723 10.5728 2.20427Z"></path><path d="M21.8495 10.6267L22.4006 8.57965C22.6073 7.78121 22.4887 6.93333 22.071 6.22235C21.6532 5.51137 20.9705 4.99549 20.1729 4.78809L18.1337 4.25139C20.1325 5.8275 21.4545 8.10791 21.8297 10.6267"></path><path d="M2.17325 13.4623L1.608 15.4995C1.50114 15.8946 1.47324 16.3069 1.5259 16.7129C1.57857 17.1188 1.71075 17.5104 1.91488 17.8651C2.11901 18.2198 2.39108 18.5307 2.71549 18.78C3.0399 19.0293 3.41028 19.2121 3.8054 19.3179L5.84453 19.8652C3.84745 18.2881 2.52723 16.0075 2.15346 13.4891"></path><path d="M13.4217 21.8748L15.4609 22.4222C16.258 22.6354 17.1071 22.5239 17.8222 22.112C18.5373 21.7001 19.0602 21.0214 19.2763 20.2244L19.8239 18.1872C18.2428 20.1851 15.9606 21.505 13.4415 21.8784"></path><path fill-rule="evenodd" clip-rule="evenodd" d="M12 20.6017C16.7351 20.6017 20.5737 16.7631 20.5737 12.028C20.5737 7.29287 16.7351 3.45429 12 3.45429C7.26488 3.45429 3.42631 7.29287 3.42631 12.028C3.42631 16.7631 7.26488 20.6017 12 20.6017ZM15.6707 6.9839C15.7243 6.99532 15.7746 7.01899 15.8176 7.05306C15.8607 7.0867 15.8957 7.12971 15.9197 7.17883C15.9438 7.22796 15.9563 7.28191 15.9565 7.33661V13.6478C15.9568 14.0096 15.8362 14.3612 15.6138 14.6467C15.3914 14.9321 15.08 15.1351 14.729 15.2232C14.3781 15.3114 14.0077 15.2797 13.6768 15.1333C13.3459 14.9869 13.0734 14.734 12.9027 14.415C12.732 14.0959 12.6728 13.729 12.7345 13.3724C12.7962 13.0158 12.9754 12.6901 13.2434 12.4471C13.5115 12.204 13.8531 12.0575 14.214 12.0308C14.5749 12.0041 14.9343 12.0989 15.2352 12.2999V9.60187L10.1862 10.8641V15.0903C10.1866 15.4522 10.066 15.8038 9.84357 16.0892C9.62117 16.3747 9.30976 16.5776 8.9588 16.6658C8.60785 16.754 8.23749 16.7223 7.90659 16.5758C7.57569 16.4294 7.30323 16.1766 7.1325 15.8575C6.96177 15.5385 6.90257 15.1715 6.9643 14.8149C7.02604 14.4584 7.20517 14.1327 7.47323 13.8896C7.74129 13.6465 8.0829 13.5 8.44378 13.4734C8.80466 13.4467 9.16409 13.5414 9.46497 13.7424V8.77916C9.46508 8.69882 9.49202 8.62081 9.54151 8.55752C9.591 8.49423 9.66021 8.44928 9.73815 8.42979L15.5084 6.98724C15.5615 6.97363 15.6171 6.97248 15.6707 6.9839Z"></path></symbol><use href="#4a2d59e6-c4e9-4622-b29c-4d328b7e74c2"></use></svg>