<svg xmlns="http://www.w3.org/2000/svg" viewBox="2.2117977142333984 2.2117977142333984 19.576406478881836 19.576404571533203"><g><polygon points="14,14.5 15,11.1 12.1,9 9.3,11.1 10.3,14.5"></polygon><polygon points="17.5,11 16.2,11.4 15,14.9 15.7,16.1 18.5,15.2 19.1,12.9"></polygon><path d="M13.9,19.6c0.5-0.1,0.9-0.2,1.4-0.4c1.4-0.6,2.2-1.7,2.6-2.2c0.2-0.3,0.4-0.5,0.5-0.8l-2.9,0.8
		C15.1,17.8,14.5,18.7,13.9,19.6z"></path><path d="M18.5,7.6c-0.2-0.3-0.4-0.5-0.6-0.7c0,1,0,2,0,3c0.7,0.8,1.4,1.6,2.1,2.3c0-0.5,0-1,0-1.5
		C19.7,9.3,18.9,8.2,18.5,7.6z"></path><path d="M9,4.8l2.8,1.1c1-0.4,2-0.7,3-1.1c-0.4-0.2-0.9-0.4-1.4-0.5c-1.5-0.3-2.8,0-3.5,0.2C9.7,4.6,9.3,4.7,9,4.8z"></path><path d="M6.2,10.4C6.2,9.3,6.1,8.3,6.1,7.2C5.7,7.6,5.4,7.9,5.2,8.4C4.4,9.7,4.3,11,4.3,11.7c0,0.3,0,0.7,0,1
		C4.9,11.9,5.6,11.2,6.2,10.4z"></path><path d="M5.5,16c0.2,0.4,0.5,0.9,0.8,1.2c1,1.2,2.2,1.7,2.9,2c0.3,0.1,0.6,0.2,0.9,0.3l-1.5-2.6L5.5,16z"></path><polygon points="6.6,11 5.2,12.9 6.1,15.4 8.3,15.9 9.2,14.6 8.1,11.6"></polygon><polygon points="11.4,6.5 9.2,5.5 7,7.3 7.1,9.5 8.9,9.9 11.4,8"></polygon><polygon points="12.8,6.4 12.8,7.9 15.9,10.2 17.1,9.8 17.1,7.1 14.8,5.5"></polygon><polygon points="14.7,16.8 13.9,15.7 10.3,15.7 9.6,16.7 11,18.9 13.4,18.9"></polygon><path d="M19.5,5.1l-1.7-0.4c1.9,1.5,3.1,3.6,3.4,5.9l0.5-1.8C22.1,7.2,21.1,5.5,19.5,5.1z"></path><path d="M10.5,2.8L8.8,2.3C7.2,1.9,5.5,2.9,5.1,4.5L4.6,6.2C6.1,4.4,8.1,3.1,10.5,2.8z"></path><path d="M13.2,21.2l2,0.5c1.6,0.4,3.3-0.6,3.7-2.2l0.5-1.9C17.9,19.5,15.7,20.8,13.2,21.2z"></path><path d="M2.8,13.4l-0.5,1.9c-0.4,1.6,0.6,3.3,2.2,3.7l2,0.5C4.5,18,3.2,15.8,2.8,13.4z"></path></g></svg>