<svg xmlns="http://www.w3.org/2000/svg" viewBox="-0.057633087038993835 -0.06796625256538391 32.05752182006836 32.03131103515625"><g><g><path d="M13.792,0.961l-3.077-0.86C8.179-0.59,5.562,0.901,4.869,3.431C4.867,3.439,4.865,3.447,4.863,3.454L4.047,6.561C6.464,3.526,9.949,1.524,13.792,0.961z"></path><path d="M28.446,4.903l-3.113-0.819c3.053,2.407,5.071,5.885,5.642,9.726h0.031l0.841-3.123C32.504,8.153,30.983,5.567,28.446,4.903z"></path><path d="M0.946,18.219l-0.838,3.023c-0.685,2.533,0.817,5.14,3.355,5.824c0.002,0,0.003,0.001,0.005,0.001l3.113,0.834C3.539,25.504,1.526,22.043,0.946,18.219z"></path><path d="M0.939,18.176c0.002,0.014,0.005,0.029,0.007,0.043l0.023-0.084L0.939,18.176z"></path><path d="M18.168,30.973l-0.026-0.005l3.113,0.834c2.535,0.674,5.138-0.825,5.822-3.353l0.836-3.107C25.501,28.389,22.016,30.403,18.168,30.973z"></path><path d="M19.599,2.5c-0.004-0.001-0.007-0.002-0.011-0.003C12.14,0.508,4.486,4.922,2.493,12.356C0.5,19.79,4.923,27.429,12.372,29.417c7.441,1.987,15.088-2.416,17.09-9.839C31.464,12.144,27.048,4.498,19.599,2.5zM14.22,9.432l0.495-1.69c0.438-1.494,2.006-2.351,3.503-1.915l1.762,0.514c1.497,0.437,2.356,2.002,1.919,3.496l-0.495,1.69c-0.058,0.198-0.204,0.358-0.396,0.435l-3.786,2.009c-0.287,0.115-0.616,0.019-0.797-0.232l-2.106-3.727C14.198,9.843,14.162,9.629,14.22,9.432z M9.763,17.893l-1.693-0.494c-1.497-0.437-2.356-2.002-1.918-3.496l0.515-1.758c0.437-1.494,2.006-2.351,3.503-1.915l1.693,0.494c0.198,0.058,0.359,0.203,0.436,0.395l2.013,3.778c0.115,0.287,0.019,0.615-0.233,0.795l-3.735,2.102C10.175,17.914,9.961,17.951,9.763,17.893z M18.241,22.341l-0.495,1.69c-0.438,1.494-2.006,2.351-3.503,1.915l-1.762-0.514c-1.497-0.437-2.356-2.002-1.918-3.496l0.495-1.69c0.058-0.198,0.204-0.358,0.396-0.435l3.786-2.009c0.288-0.115,0.616-0.019,0.797,0.232l2.106,3.727C18.263,21.929,18.299,22.143,18.241,22.341z M26.31,17.87l-0.515,1.758c-0.438,1.494-2.006,2.351-3.503,1.915l-1.693-0.494c-0.198-0.058-0.359-0.203-0.436-0.395l-2.013-3.778c-0.115-0.287-0.019-0.615,0.233-0.795l3.735-2.102c0.168-0.12,0.382-0.156,0.58-0.098l1.694,0.494C25.888,14.81,26.748,16.375,26.31,17.87z"></path></g></g></svg>