<svg xmlns="http://www.w3.org/2000/svg" viewBox="0 0 24 24" transform="matrix(-1, 0, 0, 1, 0, 0)"><symbol id="e462e2be-295d-4b3e-a803-618e6f50cc53" viewBox="0 0 24 24" fill="#000000"><path d="M24,0H0V24H24Z" fill="none"/><path d="M13,18H11V16h2ZM12,2A10,10,0,1,1,2,12,10,10,0,0,1,12,2Zm0,18a8,8,0,1,0-8-8A8.011,8.011,0,0,0,12,20ZM12,6a4,4,0,0,1,4,4H14a2,2,0,0,0-4,0c0,2,3,1.75,3,5H11c0-2.25-3-2.5-3-5A4,4,0,0,1,12,6Z" fill="#000000"/></symbol><use href="#e462e2be-295d-4b3e-a803-618e6f50cc53" fill="#000000"/></svg>