<svg xmlns="http://www.w3.org/2000/svg" viewBox="0 0 22 22"><symbol id="ed49a625-4ab8-493a-ac71-c36eb0aaee4e" viewBox="0 0 22 22"><path d="M10.88 8.14C12.16 8.2 12.49 9.29 12.51 9.8H14.3C14.22 7.82 12.81 6.61 10.85 6.61C8.64 6.61 7 8 7 11.14C7 13.08 7.93 15.38 10.84 15.38C13.06 15.38 14.25 13.73 14.28 12.43H12.49C12.46 13.02 12.04 13.81 10.86 13.87C9.55 13.83 9 12.81 9 11.14C9 8.25 10.28 8.16 10.88 8.14ZM11 1C5.48 1 1 5.48 1 11C1 16.52 5.48 21 11 21C16.52 21 21 16.52 21 11C21 5.48 16.52 1 11 1ZM11 19C6.59 19 3 15.41 3 11C3 6.59 6.59 3 11 3C15.41 3 19 6.59 19 11C19 15.41 15.41 19 11 19Z"></path></symbol><use href="#ed49a625-4ab8-493a-ac71-c36eb0aaee4e"></use></svg>