<svg xmlns="http://www.w3.org/2000/svg" viewBox="0 0 19 16"><symbol id="c812c530-6572-435a-9d83-6116d870f947" viewBox="0 0 19 16"><path d="M11.25 4.66667H9.99998V8.83333L13.5666 10.95L14.1666 9.94167L11.25 8.20833V4.66667ZM10.8333 0.5C8.84419 0.5 6.93653 1.29018 5.53001 2.6967C4.12349 4.10322 3.33331 6.01088 3.33331 8H0.833313L4.13331 11.3583L7.49998 8H4.99998C4.99998 6.4529 5.61456 4.96917 6.70852 3.87521C7.80249 2.78125 9.28622 2.16667 10.8333 2.16667C12.3804 2.16667 13.8641 2.78125 14.9581 3.87521C16.0521 4.96917 16.6666 6.4529 16.6666 8C16.6666 9.5471 16.0521 11.0308 14.9581 12.1248C13.8641 13.2188 12.3804 13.8333 10.8333 13.8333C9.22498 13.8333 7.76665 13.175 6.71665 12.1167L5.53331 13.3C6.89165 14.6667 8.74998 15.5 10.8333 15.5C12.8224 15.5 14.7301 14.7098 16.1366 13.3033C17.5431 11.8968 18.3333 9.98912 18.3333 8C18.3333 6.01088 17.5431 4.10322 16.1366 2.6967C14.7301 1.29018 12.8224 0.5 10.8333 0.5Z"></path></symbol><use href="#c812c530-6572-435a-9d83-6116d870f947"></use></svg>