<svg xmlns="http://www.w3.org/2000/svg" viewBox="0 0 24 24"><symbol id="d74898e5-0855-417a-9c02-c52fbf59ee23" viewBox="0 0 24 24"><path d="M15.3,3.2H8.7c-3,0-5.5,2.5-5.5,5.5v6.6c0,3,2.5,5.5,5.5,5.5h6.6c3,0,5.5-2.5,5.5-5.5V8.7C20.8,5.6,18.4,3.2,15.3,3.2zM19.2,15.3c0,2.1-1.7,3.9-3.9,3.9H8.7c-2.1,0-3.9-1.7-3.9-3.9V8.7c0-2.1,1.7-3.9,3.9-3.9h6.6c2.1,0,3.9,1.7,3.9,3.9V15.3z"></path><path d="M12,7.6c-2.4,0-4.4,2-4.4,4.4s2,4.4,4.4,4.4s4.4-2,4.4-4.4S14.4,7.6,12,7.6z M12,14.8c-1.5,0-2.8-1.2-2.8-2.8c0-1.5,1.2-2.8,2.8-2.8s2.8,1.2,2.8,2.8C14.8,13.5,13.5,14.8,12,14.8z"></path><circle cx="16.4" cy="7.2" r="0.8"></circle></symbol><use href="#d74898e5-0855-417a-9c02-c52fbf59ee23"></use></svg>