<svg xmlns="http://www.w3.org/2000/svg" viewBox="0 0 32 32"><symbol id="4d4ffec4-2c58-4af3-b629-c6c5a9d9903d" viewBox="0 0 32 32"><g><path d="M73.6,10.1c-1.6,0-3,0.4-4.3,1.3c0,0-0.2,0.1-0.5,0.3c-0.4,0.3-0.7,0.6-1,1c-1,1.2-1.5,2.6-1.6,4.1c-0.2,2.3-1.1,4-2.8,5c0.8-0.9,1-1.7,0.6-2.2c-1.6,0.8-3.1,0.7-4.6-0.4c-0.9-0.7-1.5-1.7-1.6-2.9c-0.2-1.2,0.1-2.2,0.9-3.1c0.7-0.9,1.7-1.5,2.9-1.6c1.2-0.2,2.2,0.1,3.1,0.9c0.8,0.6,1.3,1.3,1.5,2.3c0.5-1.6,1.4-2.8,2.8-3.7c-0.6-0.8-1.1-1.3-1.7-1.8c-1.9-1.5-4-2-6.3-1.7c-2.3,0.3-4.3,1.4-5.7,3.2s-2,4-1.7,6.4c0.3,2.3,1.4,4.3,3.3,5.7c1.7,1.3,3.6,1.9,5.8,1.8c2.1-0.1,3.9-0.9,5.5-2.4l0,0h0c0.3-0.3,0.5-0.6,0.8-0.9c0.9-1.2,1.5-2.5,1.7-3.9v0c0-0.2,0-0.4,0.1-0.6l0,0c0.4-2,1.3-3.5,2.7-4.4c-0.7,0.9-0.9,1.6-0.6,2.2c0.9-0.3,1.8-0.1,2.5,0.5c0.6,0.5,1,1.1,1.1,1.9c0.1,0.8-0.1,1.5-0.6,2.1c-0.5,0.6-1.1,1-1.9,1.1c-0.8,0.1-1.5-0.1-2.1-0.6c-0.5-0.3-0.8-0.8-1-1.4c-0.3,1.2-0.8,2.3-1.6,3.2c-0.3,0.3-0.5,0.6-0.9,1c0.2,0.2,0.5,0.4,0.7,0.6c1.6,1.2,3.4,1.7,5.4,1.5c2-0.3,3.6-1.2,4.8-2.7c1.2-1.6,1.7-3.4,1.5-5.4c-0.3-2-1.2-3.6-2.7-4.8C76.7,10.6,75.3,10.1,73.6,10.1z"></path><path d="M117.3,16.3c0,2.5-0.5,4.7-1.6,6.6s-2.5,3.4-4.4,4.5s-4.1,1.7-6.6,1.6c-1.8,0-3.5-0.3-5.1-1s-3-1.6-4.2-2.8c-1.2-1.2-2.1-2.6-2.8-4.2c-0.7-1.6-1-3.3-1-5.1s0.3-3.5,1-5.1c0.7-1.6,1.6-3,2.8-4.2s2.6-2.1,4.2-2.8s3.3-1,5.1-1c3.4,0,6.3,1.1,8.8,3.4L110,9.8c-1.4-1.3-3.1-2-5.2-2c-1.5,0-2.8,0.4-4.1,1.1s-2.2,1.7-2.9,3s-1.1,2.7-1.1,4.2s0.4,2.9,1.1,4.2c0.7,1.3,1.7,2.3,2.9,3c1.2,0.7,2.6,1.1,4.1,1.1c1,0,1.9-0.1,2.7-0.4c0.8-0.3,1.5-0.6,2-1c0.5-0.4,1-0.9,1.4-1.4c0.4-0.5,0.7-1,0.9-1.5c0.2-0.5,0.3-0.9,0.4-1.3h-7.4v-4.5h12.4C117.3,14.9,117.3,15.6,117.3,16.3z"></path><path d="M179.3,6c-0.6,1.6-1.9,5.2-3.9,10.8c-1.6,4.5-2.8,8.1-3.8,10.9c-0.2,0.5-0.5,1-0.9,1.3c-0.5,0.3-1,0.4-1.5,0.3c-0.7-0.2-1.4-0.9-2-2l-3.7-7.5c-0.2-0.5-0.6-0.9-1.2-1.2c-0.7-0.3-1.9-0.9-3.7-1.8c-1.5-0.8-2.7-1.4-3.6-1.7c-1.3-0.7-1.9-1.5-2-2.4c-0.1-0.5,0.1-0.9,0.3-1.3c0.3-0.4,0.7-0.7,1.1-0.8l8.9-3.1c3.7-1.3,6.7-2.3,8.8-3.1l2.4-0.8c1-0.3,1.8-0.6,2.4-0.7c0.9-0.2,1.6,0,2.1,0.6C179.7,4,179.7,4.9,179.3,6z"></path><path d="M219.3,7.6c-0.8,1.1-1.7,2.1-2.8,2.9c0,0.2,0,0.4,0,0.7c0,1.5-0.2,3-0.7,4.5c-0.4,1.5-1.1,2.9-2,4.3c-0.9,1.4-2,2.6-3.2,3.6c-1.2,1-2.7,1.9-4.5,2.5c-1.7,0.7-3.6,1-5.6,0.9c-3.1,0-6-0.8-8.6-2.5c0.4,0,0.8,0.1,1.3,0.1c2.6,0,4.9-0.8,6.9-2.4c-1.2,0-2.3-0.4-3.3-1.1c-1-0.7-1.6-1.6-2-2.8c0.4,0.1,0.7,0.1,1.1,0.1c0.5,0,1-0.1,1.5-0.2c-1.3-0.3-2.4-0.9-3.2-1.9s-1.3-2.2-1.3-3.6v-0.1c0.8,0.4,1.6,0.7,2.5,0.7c-0.8-0.5-1.4-1.2-1.8-2s-0.7-1.7-0.7-2.7c0-1,0.3-2,0.8-2.8c1.4,1.7,3.1,3.1,5.1,4.1s4.1,1.6,6.5,1.7c-0.1-0.4-0.2-0.9-0.2-1.3c0-1.6,0.5-2.9,1.6-3.9c1.1-1.1,2.4-1.6,3.9-1.6c1.6,0,3,0.6,4.1,1.8c1.3-0.2,2.5-0.7,3.6-1.4c-0.4,1.3-1.3,2.4-2.5,3.1C217.2,8.3,218.2,8,219.3,7.6z"></path><path d="M9,6.1C9,6.9,8.7,7.5,8.2,8S6.9,8.8,6,8.8C5.2,8.8,4.5,8.6,4,8S3.2,6.9,3.2,6.1c0-0.8,0.3-1.5,0.8-2s1.2-0.8,2.1-0.8s1.6,0.3,2.1,0.8S8.9,5.3,9,6.1z M3.3,28.6V11h5.5v17.6C8.8,28.6,3.3,28.6,3.3,28.6z M12.1,16.7c0-1.6,0-3.5-0.1-5.6h4.7l0.3,2.5h0.1c1.1-1.9,2.9-2.9,5.4-2.9c1.9,0,3.4,0.6,4.6,1.9c1.2,1.3,1.7,3.2,1.7,5.7v10.4h-5.5v-9.8c0-2.5-0.9-3.8-2.8-3.8c-1.3,0-2.3,0.7-2.8,2.1c-0.1,0.2-0.2,0.7-0.2,1.4v10.2h-5.5C12.1,28.6,12.1,16.7,12.1,16.7z"></path><path d="M143.5,2.2v4.4h-2.6c-1,0-1.6,0.2-2,0.6s-0.5,1-0.5,1.8v3.2h4.9l-0.7,5h-4.3V30h-5.1V17.2H129v-5h4.3V8.6c0-2.1,0.6-3.7,1.7-4.8s2.7-1.7,4.7-1.7C141.3,2,142.6,2.1,143.5,2.2z"></path></g></symbol><use href="#4d4ffec4-2c58-4af3-b629-c6c5a9d9903d"></use></svg>