<svg xmlns="http://www.w3.org/2000/svg" viewBox="0 0 24 24"><symbol id="efb818d6-df44-4e58-9287-983dff028650" viewBox="0 0 24 24"><path d="M21.3,4.6c0-0.2-0.1-0.4-0.2-0.6l0,0l0,0l0,0l0,0c-0.2-0.2-0.4-0.3-0.6-0.3l0,0h-0.1h0L20,3.8l0,0L3.3,10.4l0,0c-0.4,0.1-0.6,0.5-0.6,0.9v0v0v0c0,0.4,0.2,0.8,0.6,0.9l0,0l4.2,1.6l0.9,5.4c0.1,0.3,0.3,0.6,0.6,0.7c0.1,0,0.2,0.1,0.3,0.1c0.2,0,0.4-0.1,0.6-0.2l0,0l2.6-2.6l4.4,3l0,0c0.2,0.1,0.4,0.2,0.5,0.2c0.1,0,0.3,0,0.4-0.1c0.3-0.1,0.5-0.4,0.6-0.7l2.8-14.7l0-0.1l0,0L21.3,4.6L21.3,4.6L21.3,4.6z M13.1,15.2l-1.4-0.9l7.1-6.8l-2,10.3L13.1,15.2L13.1,15.2L13.1,15.2z M9.3,12.8c-0.1-0.3-0.3-0.5-0.6-0.7l-2.4-0.9l9.7-3.9l-6.5,6.3L9.3,12.8z M11.5,16.2l-1.6,1.5l-0.4-3.1L11.5,16.2z"></path><polygon points="17.9,20.2 17.9,20.2 17.9,20.2"></polygon><polygon points="9.3,12.8 9.3,12.8 9.3,12.8"></polygon></symbol><use href="#efb818d6-df44-4e58-9287-983dff028650"></use></svg>