<svg xmlns="http://www.w3.org/2000/svg" xmlns:xlink="http://www.w3.org/1999/xlink" version="1.1" width="256" height="256" viewBox="0 0 256 256" xml:space="preserve">

<defs>
</defs>
<g style="stroke: none; stroke-width: 0; stroke-dasharray: none; stroke-linecap: butt; stroke-linejoin: miter; stroke-miterlimit: 10; fill: none; fill-rule: nonzero; opacity: 1;" transform="translate(1.4065934065934016 1.4065934065934016) scale(2.81 2.81)" >
	<path d="M 48.304 58.032 l -6.608 0 c -1.94 0 -3.624 -1.259 -4.19 -3.132 c -1.908 -6.32 -3.003 -12.877 -3.255 -19.499 l -11.895 0 c -0.845 0 -1.615 -0.466 -2.008 -1.214 c -0.395 -0.752 -0.34 -1.654 0.143 -2.353 c 5.735 -8.306 13.282 -15.735 22.429 -22.078 c 1.244 -0.863 2.916 -0.863 4.16 0 c 9.147 6.344 16.693 13.772 22.429 22.078 l 0 0 c 0.483 0.699 0.537 1.601 0.142 2.353 c -0.393 0.749 -1.162 1.214 -2.007 1.214 l -11.895 0 c -0.253 6.623 -1.347 13.18 -3.256 19.499 C 51.928 56.773 50.245 58.032 48.304 58.032 z" style="stroke: none; stroke-width: 1; stroke-dasharray: none; stroke-linecap: butt; stroke-linejoin: miter; stroke-miterlimit: 10; fill: rgb(0,0,0); fill-rule: nonzero; opacity: 1;" transform=" matrix(1 0 0 1 0 0) " stroke-linecap="round" />
	<path d="M 73.493 80.892 H 16.507 c -6.419 0 -11.919 -4.573 -13.078 -10.874 C 1.36 58.767 0.206 47.358 0.001 36.107 c -0.058 -3.155 2.453 -5.76 5.608 -5.817 c 0.035 -0.001 0.071 -0.001 0.107 -0.001 c 3.107 0 5.653 2.49 5.71 5.609 c 0.194 10.631 1.285 21.415 3.242 32.054 c 0.161 0.877 0.935 1.514 1.84 1.514 h 56.986 c 0.905 0 1.678 -0.637 1.84 -1.514 c 1.955 -10.635 3.046 -21.42 3.242 -32.054 c 0.057 -3.155 2.675 -5.673 5.817 -5.607 c 3.155 0.058 5.665 2.663 5.607 5.817 c -0.206 11.256 -1.36 22.665 -3.428 33.911 C 85.412 76.319 79.911 80.892 73.493 80.892 z" style="stroke: none; stroke-width: 1; stroke-dasharray: none; stroke-linecap: butt; stroke-linejoin: miter; stroke-miterlimit: 10; fill: rgb(0,0,0); fill-rule: nonzero; opacity: 1;" transform=" matrix(1 0 0 1 0 0) " stroke-linecap="round" />
</g>
</svg>