<svg xmlns="http://www.w3.org/2000/svg" xmlns:xlink="http://www.w3.org/1999/xlink" version="1.1" width="256" height="256" viewBox="0 0 256 256" xml:space="preserve">

<defs>
</defs>
<g style="stroke: none; stroke-width: 0; stroke-dasharray: none; stroke-linecap: butt; stroke-linejoin: miter; stroke-miterlimit: 10; fill: none; fill-rule: nonzero; opacity: 1;" transform="translate(1.4065934065934016 1.4065934065934016) scale(2.81 2.81)" >
	<path d="M 57.49 65.023 c -7.52 0 -14.59 -2.928 -19.907 -8.245 c -5.318 -5.318 -8.246 -12.387 -8.246 -19.907 s 2.928 -14.59 8.246 -19.907 C 42.9 11.646 49.97 8.718 57.49 8.718 s 14.59 2.928 19.907 8.246 c 5.318 5.317 8.245 12.387 8.245 19.907 s -2.928 14.59 -8.245 19.907 C 72.079 62.095 65.01 65.023 57.49 65.023 z M 57.49 12.729 c -6.185 0 -12.37 2.354 -17.079 7.063 c -9.417 9.417 -9.417 24.74 0 34.158 c 9.417 9.416 24.739 9.416 34.158 0 c 9.417 -9.417 9.417 -24.74 0 -34.158 C 69.859 15.083 63.675 12.729 57.49 12.729 z" style="stroke: none; stroke-width: 1; stroke-dasharray: none; stroke-linecap: butt; stroke-linejoin: miter; stroke-miterlimit: 10; fill: rgb(0,0,0); fill-rule: nonzero; opacity: 1;" transform=" matrix(1 0 0 1 0 0) " stroke-linecap="round" />
	<path d="M 12.339 90 c -2.044 0 -4.088 -0.777 -5.644 -2.334 c -1.508 -1.507 -2.338 -3.512 -2.338 -5.645 c 0 -2.132 0.831 -4.137 2.338 -5.644 l 27.143 -27.144 c 0.78 -0.781 2.047 -0.781 2.828 0 s 0.781 2.047 0 2.828 L 9.523 79.206 c -0.752 0.752 -1.167 1.752 -1.167 2.816 c 0 1.064 0.415 2.065 1.167 2.817 c 1.553 1.553 4.08 1.553 5.632 0 L 42.26 57.733 c 0.78 -0.781 2.047 -0.781 2.828 0 s 0.781 2.047 0 2.828 L 17.984 87.666 C 16.427 89.223 14.383 90 12.339 90 z" style="stroke: none; stroke-width: 1; stroke-dasharray: none; stroke-linecap: butt; stroke-linejoin: miter; stroke-miterlimit: 10; fill: rgb(0,0,0); fill-rule: nonzero; opacity: 1;" transform=" matrix(1 0 0 1 0 0) " stroke-linecap="round" />
	<path d="M 67.386 24.047 c -0.381 0 -0.766 -0.108 -1.107 -0.335 c -4.541 -3.026 -10.227 -3.513 -15.208 -1.302 c -1.009 0.447 -2.192 -0.007 -2.64 -1.017 c -0.448 -1.009 0.007 -2.191 1.017 -2.639 c 6.241 -2.771 13.361 -2.16 19.05 1.629 c 0.919 0.613 1.168 1.855 0.555 2.774 C 68.667 23.734 68.032 24.047 67.386 24.047 z" style="stroke: none; stroke-width: 1; stroke-dasharray: none; stroke-linecap: butt; stroke-linejoin: miter; stroke-miterlimit: 10; fill: rgb(0,0,0); fill-rule: nonzero; opacity: 1;" transform=" matrix(1 0 0 1 0 0) " stroke-linecap="round" />
	<path d="M 57.491 56.69 c -2.743 0 -5.487 -0.567 -8.042 -1.701 c -1.01 -0.448 -1.466 -1.63 -1.018 -2.639 c 0.449 -1.01 1.635 -1.465 2.639 -1.018 c 4.082 1.811 8.761 1.811 12.839 0 c 7.974 -3.539 11.582 -12.906 8.042 -20.88 c -0.448 -1.01 0.007 -2.192 1.017 -2.64 c 1.007 -0.449 2.191 0.007 2.64 1.017 c 2.148 4.84 2.283 10.226 0.38 15.167 s -5.616 8.845 -10.456 10.993 C 62.977 56.123 60.234 56.69 57.491 56.69 z" style="stroke: none; stroke-width: 1; stroke-dasharray: none; stroke-linecap: butt; stroke-linejoin: miter; stroke-miterlimit: 10; fill: rgb(0,0,0); fill-rule: nonzero; opacity: 1;" transform=" matrix(1 0 0 1 0 0) " stroke-linecap="round" />
	<path d="M 15.331 60.013 H 6.357 c -1.105 0 -2 -0.896 -2 -2 s 0.896 -2 2 -2 h 8.974 c 1.105 0 2 0.896 2 2 S 16.435 60.013 15.331 60.013 z" style="stroke: none; stroke-width: 1; stroke-dasharray: none; stroke-linecap: butt; stroke-linejoin: miter; stroke-miterlimit: 10; fill: rgb(0,0,0); fill-rule: nonzero; opacity: 1;" transform=" matrix(1 0 0 1 0 0) " stroke-linecap="round" />
	<path d="M 22.444 41.343 H 6.357 c -1.105 0 -2 -0.896 -2 -2 c 0 -1.105 0.896 -2 2 -2 h 16.087 c 1.105 0 2 0.896 2 2 C 24.444 40.447 23.548 41.343 22.444 41.343 z" style="stroke: none; stroke-width: 1; stroke-dasharray: none; stroke-linecap: butt; stroke-linejoin: miter; stroke-miterlimit: 10; fill: rgb(0,0,0); fill-rule: nonzero; opacity: 1;" transform=" matrix(1 0 0 1 0 0) " stroke-linecap="round" />
	<path d="M 24.304 22.671 H 6.357 c -1.105 0 -2 -0.896 -2 -2 c 0 -1.105 0.896 -2 2 -2 h 17.947 c 1.105 0 2 0.896 2 2 C 26.304 21.776 25.409 22.671 24.304 22.671 z" style="stroke: none; stroke-width: 1; stroke-dasharray: none; stroke-linecap: butt; stroke-linejoin: miter; stroke-miterlimit: 10; fill: rgb(0,0,0); fill-rule: nonzero; opacity: 1;" transform=" matrix(1 0 0 1 0 0) " stroke-linecap="round" />
	<path d="M 83.643 4 H 6.357 c -1.105 0 -2 -0.896 -2 -2 s 0.896 -2 2 -2 h 77.286 c 1.105 0 2 0.896 2 2 S 84.748 4 83.643 4 z" style="stroke: none; stroke-width: 1; stroke-dasharray: none; stroke-linecap: butt; stroke-linejoin: miter; stroke-miterlimit: 10; fill: rgb(0,0,0); fill-rule: nonzero; opacity: 1;" transform=" matrix(1 0 0 1 0 0) " stroke-linecap="round" />
</g>
</svg>